# xmcd
#
# Track frame offsets:
# 150
# 15255
# 31312
# 46070
# 59380
# 72220
# 85100
# 97252
# 113487
# 127310
# 140717
# 155937
# 168172
# 182902
# 197340
# 211152
# 223830
# 238620
# 249270
# 263292
#
# Disc length: 3669 seconds
#
#
# Revision: 3
# Processed by: cddbd v1.5.1PL2 Copyright (c) Steve Scherf et al.
# Submitted via: FreeRIP 2.945 
#
DISCID=140e5314
DTITLE=Trio Parada Dura - Raizes Sertanejas
DYEAR=1900
DGENRE=Sertanejo
TTITLE0=Castelo De Amor
TTITLE1=O Carro E A Faculdade
TTITLE2=Telefone Mudo
TTITLE3=Bobeou... A Gente Pimba
TTITLE4=Espinho Na Cama
TTITLE5=As Andorinhas
TTITLE6=Soca Pilao
TTITLE7=Passa La'
TTITLE8=Panela Velha
TTITLE9=O Doutor E A Empregada
TTITLE10=Blusa Vermelha
TTITLE11=Um Homem E Duas Mulheres
TTITLE12=Barco De Papel
TTITLE13=Uma Vez Por Mes
TTITLE14=Fuscao Preto
TTITLE15=Beco Sem Saida
TTITLE16=Parede Meia
TTITLE17=Homem De Pedra
TTITLE18=Camisola Preta
TTITLE19=Aviao Das Nove
EXTD=
EXTT0=
EXTT1=
EXTT2=
EXTT3=
EXTT4=
EXTT5=
EXTT6=
EXTT7=
EXTT8=
EXTT9=
EXTT10=
EXTT11=
EXTT12=
EXTT13=
EXTT14=
EXTT15=
EXTT16=
EXTT17=
EXTT18=
EXTT19=
PLAYORDER=
